<svg height="511pt" viewBox="0 -21 511.98705 511" width="511pt" xmlns="http://www.w3.org/2000/svg"><path d="m170.234375 342.132812c53.574219 0 105.574219-25.726562 131.808594-41.0625 11.636719-6.777343 24.863281-10.351562 38.332031-10.359374l154.546875-.28125c7.65625-.015626 14.363281-5.144532 16.382813-12.53125 2.019531-7.386719-1.140626-15.214844-7.722657-19.128907-7.195312-3.003906-14.765625-5.011719-22.503906-5.972656-5.613281-1.101563-14.097656-2.753906-15.707031-3.472656-3.367188-2.480469-6.335938-5.460938-8.800782-8.839844-8.707031-12.648437-23.5-19.691406-38.808593-18.476563-12.421875.203126-24.671875 2.9375-36 8.03125-11.734375 5.058594-24.246094 8.058594-36.992188 8.875 15.746094-38.367187 28.773438-77.792968 38.980469-117.988281 7.328125-33.597656-4.464844-89.023437-15.480469-110.933593-2.773437-5.992188-8.882812-9.722657-15.480469-9.449219-6.507812.050781-12.40625 3.832031-15.171874 9.71875-16.589844 34.902343-74.242188 104.160156-135.59375 139.09375-51.507813-42.1875-57.824219-83.054688-65.613282-134.355469-.832031-5.386719-4.171875-10.054688-9.003906-12.578125-4.796875-2.523437-10.519531-2.574219-15.359375-.128906-20.242187 10.105469-78.046875 54.367187-78.046875 123.085937 0 40.644532 21.335938 77.882813 45.652344 103.976563-17.355469-1.441407-36.894532-3.992188-51.410156-5.878907l-9.082032-1.175781c-6.199218-.808593-12.34375 1.871094-15.964844 6.972657-3.679687 5.171874-4.222656 11.945312-1.417968 17.636718 23.253906 47.324219 88.578125 95.222656 168.457031 95.222656zm182.800781-324.496093c8.535156 17.066406 20.710938 69.121093 14.054688 99.636719-10.625 41.132812-24.105469 81.476562-40.34375 120.734374-8.433594-1.667968-16.378906-5.238281-23.226563-10.433593l-37.660156-28.9375c13.226563-14.191407 54.035156-63.402344 42.035156-116.828125 17.699219-19.398438 32.867188-40.960938 45.140625-64.171875zm-60.097656 80.390625c1.824219 42.011718-31.804688 80.71875-40.695312 90.148437l-35.839844-27.519531c28.066406-17.542969 53.785156-38.585938 76.535156-62.628906zm-266.90625 142.371094c20.828125 2.714843 51.675781 6.707031 72.933594 7.082031 15.605468 11.824219 33.359375 20.503906 52.277344 25.550781.761718.222656 1.550781.332031 2.34375.332031 4.25-.007812 7.847656-3.140625 8.4375-7.347656.589843-4.210937-2.003907-8.210937-6.089844-9.386719-17.285156-4.542968-33.480469-12.507812-47.632813-23.421875-.203125-.257812-.417969-.503906-.648437-.734375-9.457032-7.886718-56.585938-50.101562-56.585938-107.09375.125-19.480468 5.441406-38.574218 15.402344-55.3125 6.453125 7.679688 8.449219 20.480469 10.871094 36.265625 5.746094 37.324219 13.605468 88.4375 89.738281 123.578125 4.28125 1.976563 9.347656.109375 11.324219-4.171875 1.972656-4.277343.105468-9.347656-4.171875-11.324219-67.816407-31.300781-74.582031-75.304687-80.019531-110.667968-3.027344-19.730469-5.808594-36.863282-18.097657-48.085938 11.699219-15.515625 26.527344-28.40625 43.519531-37.835937 8.355469 55.175781 15.582032 102.792969 79.984376 151.433593l93.507812 71.847657c12.804688 9.796875 28.464844 15.132812 44.585938 15.191406 17.476562-.042969 34.757812-3.640625 50.796874-10.582031 9.207032-4.175782 19.164063-6.4375 29.269532-6.648438 10.179687-1.25 20.164062 3.511719 25.601562 12.203125 3.511719 4.691407 7.730469 8.808594 12.5 12.210938 6.933594 3.222656 14.355469 5.269531 21.957032 6.058593 5.625 1.101563 15.046874 2.945313 17.210937 3.851563h-.125l-154.558594.246094c-16.488281.015625-32.679687 4.390625-46.933593 12.6875-24.746094 14.507812-73.640626 38.734375-123.1875 38.734375-72.121094.007812-132.707032-44.125-153.1875-85.828125zm0 0"/><path d="m443.71875 469.628906c4.714844 0 8.535156-3.820312 8.535156-8.53125v-9.300781c21.441406-3.664063 38.234375-20.460937 41.898438-41.898437h9.300781c4.714844 0 8.535156-3.824219 8.535156-8.535157 0-4.710937-3.820312-8.535156-8.535156-8.535156h-9.300781c-3.664063-21.4375-20.457032-38.234375-41.898438-41.898437v-9.300782c0-4.710937-3.820312-8.53125-8.535156-8.53125-4.710938 0-8.53125 3.820313-8.53125 8.53125v9.300782c-21.441406 3.664062-38.234375 20.460937-41.898438 41.898437h-9.300781c-4.714843 0-8.535156 3.824219-8.535156 8.535156 0 4.710938 3.820313 8.535157 8.535156 8.535157h9.300781c3.664063 21.4375 20.457032 38.234374 41.898438 41.898437v9.300781c0 4.710938 3.820312 8.53125 8.53125 8.53125zm-32.988281-59.960937c4.203125-.507813 7.363281-4.070313 7.363281-8.304688s-3.160156-7.796875-7.363281-8.304687c3.066406-12.136719 12.546875-21.617188 24.6875-24.683594.503906 4.199219 4.070312 7.363281 8.300781 7.363281 4.234375 0 7.800781-3.164062 8.304688-7.363281 12.140624 3.066406 21.617187 12.546875 24.6875 24.683594-4.203126.507812-7.367188 4.070312-7.367188 8.304687s3.164062 7.796875 7.367188 8.304688c-3.070313 12.136719-12.546876 21.617187-24.6875 24.683593-.503907-4.199218-4.070313-7.363281-8.304688-7.363281-4.230469 0-7.796875 3.164063-8.300781 7.363281-12.140625-3.066406-21.621094-12.546874-24.6875-24.683593zm0 0"/><path d="m452.253906 401.363281c0 4.710938-3.820312 8.535157-8.535156 8.535157-4.710938 0-8.53125-3.824219-8.53125-8.535157 0-4.710937 3.820312-8.535156 8.53125-8.535156 4.714844 0 8.535156 3.824219 8.535156 8.535156zm0 0"/></svg>